<svg width="82" height="100" viewBox="0 0 82 100" fill="none" xmlns="http://www.w3.org/2000/svg">
<path d="M36.8655 19.0894C39.4397 17.6033 42.6111 17.6033 45.1852 19.0894L72.3506 34.7734C74.9247 36.2595 76.5104 39.0061 76.5104 41.9784V73.3463C76.5104 76.3186 74.9247 79.0652 72.3506 80.5514L45.1852 96.2353C42.6111 97.7214 39.4397 97.7214 36.8655 96.2353L9.70019 80.5514C7.12607 79.0652 5.54034 76.3186 5.54034 73.3463V41.9784C5.54034 39.0061 7.12607 36.2595 9.7002 34.7734L36.8655 19.0894Z" fill="url(#paint0_linear_523_2586)" stroke="black" stroke-width="4.15986"/>
<line x1="40.9854" y1="20.0156" x2="40.9854" y2="95.7251" stroke="#FFFAFA" stroke-width="2"/>
<circle cx="40.8173" cy="57.4545" r="7.07176" stroke="white" stroke-width="1.66394"/>
<rect x="67.3584" y="50.8848" width="8.84944" height="14.7234" stroke="white" stroke-width="1.5"/>
<rect x="71.2683" y="54.7947" width="4.8238" height="6.90373" stroke="white"/>
<rect x="5.37671" y="50.8848" width="8.84944" height="14.7234" stroke="white" stroke-width="1.5"/>
<rect x="5.54272" y="54.7947" width="4.8238" height="6.90373" stroke="white"/>
<path d="M36.6575 19.0894C39.2317 17.6033 42.4031 17.6033 44.9773 19.0894L71.9625 34.6694C74.5366 36.1555 76.1223 38.9021 76.1223 41.8744V73.0343C76.1223 76.0066 74.5366 78.7532 71.9625 80.2394L44.9773 95.8193C42.4031 97.3055 39.2317 97.3055 36.6575 95.8193L9.67233 80.2394C7.0982 78.7532 5.51247 76.0066 5.51247 73.0343V41.8744C5.51247 38.9021 7.0982 36.1555 9.67233 34.6694L36.6575 19.0894Z" stroke="black" stroke-width="4"/>
<path d="M41.3248 0C33.8153 0.00674365 26.616 2.99441 21.3053 8.30534C15.9947 13.6163 13.0067 20.8154 13 28.3248C13 47.4749 39.1735 79.1076 40.2897 80.443C40.5459 80.7499 40.9236 80.9286 41.3249 80.9286C41.7261 80.9286 42.1038 80.7499 42.3601 80.443C43.4762 79.1077 69.6497 47.4749 69.6497 28.3248C69.643 20.8153 66.6553 13.616 61.3444 8.30534C56.0335 2.99467 48.8341 0.00673329 41.3248 0ZM41.3248 43.1621C37.3896 43.1621 33.6163 41.5975 30.8347 38.8155C28.053 36.0335 26.4881 32.2602 26.4881 28.3254C26.4881 24.3906 28.0527 20.6169 30.8347 17.8353C33.6166 15.0536 37.39 13.4887 41.3248 13.4887C45.2596 13.4887 49.0333 15.0533 51.8149 17.8353C54.5965 20.6172 56.1615 24.3906 56.1615 28.3254C56.1581 32.2606 54.5935 36.0305 51.8115 38.8121C49.0296 41.594 45.2596 43.1587 41.3248 43.1621Z" fill="url(#paint1_linear_523_2586)"/>
<mask id="mask0_523_2586" style="mask-type:alpha" maskUnits="userSpaceOnUse" x="13" y="0" width="57" height="81">
<path d="M41.3248 0C33.8153 0.00674365 26.616 2.99441 21.3053 8.30534C15.9947 13.6163 13.0067 20.8154 13 28.3248C13 47.4749 39.1735 79.1076 40.2897 80.443C40.5459 80.7499 40.9236 80.9286 41.3249 80.9286C41.7261 80.9286 42.1038 80.7499 42.3601 80.443C43.4762 79.1077 69.6497 47.4749 69.6497 28.3248C69.643 20.8153 66.6553 13.616 61.3444 8.30534C56.0335 2.99467 48.8341 0.00673329 41.3248 0ZM41.3248 43.1621C37.3896 43.1621 33.6163 41.5975 30.8347 38.8155C28.053 36.0335 26.4881 32.2602 26.4881 28.3254C26.4881 24.3906 28.0527 20.6169 30.8347 17.8353C33.6166 15.0536 37.39 13.4887 41.3248 13.4887C45.2596 13.4887 49.0333 15.0533 51.8149 17.8353C54.5965 20.6172 56.1615 24.3906 56.1615 28.3254C56.1581 32.2606 54.5935 36.0305 51.8115 38.8121C49.0296 41.594 45.2596 43.1587 41.3248 43.1621Z" fill="url(#paint2_linear_523_2586)"/>
</mask>
<g mask="url(#mask0_523_2586)">
<rect x="41.2168" y="-2.48071" width="32.5575" height="92.7113" fill="url(#paint3_linear_523_2586)"/>
</g>
<path d="M34.383 4.65112C25.9078 7.85519 11.1897 19.1625 20.1198 38.759" stroke="url(#paint4_linear_523_2586)" stroke-width="2.48057"/>
<circle cx="41.5267" cy="29.767" r="20.4647" fill="#C63F3F"/>
<circle cx="41.2167" cy="29.1466" r="20.4647" fill="#710808"/>
<circle cx="41.0615" cy="28.9917" r="17.519" fill="#D4DDE2"/>
<path d="M51.8063 22.6847C51.8063 32.3602 43.9628 40.2037 34.2873 40.2037C25.0607 40.2037 24.4926 33.3085 24.7103 27.9404C25.0608 19.2977 32.8859 12.5237 41.0613 12.5237C45.266 12.5237 51.8063 13.0092 51.8063 22.6847Z" fill="white"/>
<path d="M33.3994 43.5537C34.1556 43.9495 34.785 44.1709 35.2191 44.3239C41.1694 45.8131 46.5388 45.3531 51.2383 41.4704C55.8385 37.6112 58.0179 31.4922 56.883 25.6212C56.5708 24.0063 55.8612 22.1126 55.0271 20.6687C54.6056 19.939 53.6893 18.6743 53.1409 18.0661C52.2273 17.0528 50.9136 15.9523 49.7516 15.2262C46.9664 13.4858 43.4276 12.6415 40.1266 12.9294C35.6379 13.321 31.4236 15.7597 28.6356 19.0726C26.101 22.0845 24.7562 26.3147 24.9653 30.2588C25.0464 31.7878 25.2055 32.6947 25.6381 34.1052C26.2549 36.1164 26.922 37.456 28.1055 39.0561C29.6269 41.113 31.0554 42.3265 33.3994 43.5537ZM31.7467 41.8741C31.536 41.7649 31.2915 41.5955 30.9798 41.3445C29.6506 40.2023 28.5825 38.8822 27.8255 37.4908C27.8255 37.4908 28.1904 35.1941 28.4151 34.0643C29.7219 34.1613 31.0671 34.4432 32.2654 34.6072C32.5057 34.6388 32.7295 34.6698 32.8943 34.6953C32.9766 34.7082 33.0447 34.7196 33.0914 34.7282C33.1055 34.7318 33.1138 34.7329 33.1227 34.7347C33.1932 34.7831 33.3757 34.9457 33.608 35.1838C33.8484 35.4302 34.1473 35.7538 34.4749 36.1228C35.13 36.8609 35.9024 37.7803 36.5717 38.6331L37.1805 39.4086C37.0675 40.5663 36.785 41.6581 36.7999 42.6912C35.2119 42.4688 33.886 42.2229 32.3149 42.0456L32.3135 42.0457L32.3124 42.0461C32.133 42.0332 31.7463 41.8742 31.7463 41.8742L31.7467 41.8741ZM37.3796 42.7831C37.3785 42.7831 37.3778 42.7831 37.3771 42.7831H37.3814H37.3796ZM37.3869 42.7416C37.3726 41.6245 37.4916 40.6322 37.7764 39.572C37.8438 39.3966 37.8834 39.3699 38.0357 39.2773C38.1543 39.2054 38.427 39.0795 38.788 38.9286C39.149 38.7777 39.6 38.6008 40.0821 38.4222C41.0464 38.0649 42.1532 37.6887 42.9934 37.4441L43.8384 37.1984L48.8584 39.04C48.8584 39.04 48.4032 41.4865 48.043 42.7192C47.9875 42.8798 47.9704 42.8964 47.9078 42.9543C45.7681 44.0733 44.3108 44.6341 42.3867 44.6246C41.0768 44.2572 39.7091 43.7882 38.4996 43.3017L38.4989 43.3013L38.4978 43.3017C38.0949 43.1512 37.756 42.9621 37.3865 42.7416H37.3869ZM28.3033 33.4051L26.7814 27.464C26.7814 27.464 28.996 24.0998 30.1101 22.4225L30.3217 22.4389C31.8407 22.5533 33.2207 22.6771 33.7213 22.7438C33.8882 22.766 34.0638 22.7939 34.2101 22.8207C34.3562 22.8474 34.4849 22.878 34.5128 22.8872C34.5583 22.9024 34.5811 22.9109 34.5899 22.9151C34.5987 22.9194 34.5906 22.9119 34.5957 22.9195C34.5943 22.9169 34.5979 22.9243 34.6015 22.9353C34.6052 22.9463 34.6097 22.9623 34.6149 22.9829C34.6252 23.0243 34.6377 23.085 34.6515 23.1674L34.6518 23.1685L34.6522 23.1699C35.1341 25.2909 35.5852 26.978 36.1103 28.9745L35.1371 30.6348C34.613 31.5288 34.139 32.322 33.7704 32.9248C33.4018 33.5274 33.1265 33.9536 33.0447 34.0582C33.024 34.0847 33.0125 34.0977 33.0067 34.1024C33.0009 34.1071 32.9995 34.1074 32.9841 34.1114C32.9643 34.1167 32.8834 34.1221 32.7441 34.1111L32.7423 34.1109C31.2202 33.8743 28.3033 33.4051 28.3033 33.4051ZM25.6669 27.3745C25.6694 27.3599 25.6711 27.3472 25.6745 27.3285C25.7002 27.1896 25.7432 26.977 25.7807 26.8021C25.8696 26.3864 25.9354 25.9668 26.0613 25.5661C26.5281 24.0805 27.0435 22.5908 27.8154 21.2407C28.4134 20.1949 29.2862 19.1627 30.0183 18.362C30.3766 17.9702 30.5827 17.7579 30.7157 17.6595C30.851 17.5593 30.8919 17.5576 31.0579 17.5534C31.0624 17.5533 31.0661 17.5533 31.0703 17.5532C31.0666 17.5605 31.0646 17.5661 31.0596 17.5753C30.9732 17.7492 30.849 17.9895 30.709 18.252C30.253 19.1078 30.1616 19.3271 29.9862 19.9797C29.8824 20.366 29.7932 20.777 29.7331 21.1314C29.6742 21.4787 29.6419 21.7544 29.6572 21.9458L29.6546 21.9505L29.6557 21.9612L29.6554 21.9619C29.661 22.0234 29.6343 22.0672 29.6343 22.0672C28.5169 23.8201 27.3202 25.5239 26.2264 27.2915C26.0438 27.3281 25.8411 27.3527 25.6669 27.3745ZM44.0163 36.6348C44.0131 34.601 43.3149 30.7807 43.3149 30.7807C43.3149 30.7807 43.3287 30.7646 43.3385 30.7532C44.9445 29.2054 47.9577 26.0375 47.9577 26.0375L48.2846 26.1046C49.0665 26.2646 49.787 26.472 50.7677 26.8204C51.2939 27.0073 52.0339 27.3048 52.3898 27.471L52.9626 27.7384C53.133 29.9213 53.5246 33.7556 53.5246 33.7556C52.2469 35.5483 50.479 37.2208 49.0452 38.4524L44.0163 36.6348ZM36.6242 28.7406C36.6242 28.7406 35.5071 24.6042 35.1568 22.877L35.1371 22.7259L36.0126 21.8468C36.5988 21.2585 37.4705 20.4139 38.2088 19.7108C38.5779 19.3593 38.9144 19.0429 39.1643 18.8124C39.2935 18.69 39.4198 18.5807 39.551 18.466L45.6443 19.8847C45.6443 19.8847 47.2298 24.0011 47.4698 25.7332C47.4698 25.7332 45.0634 28.4776 43.6417 29.7585C43.2802 30.082 42.9881 30.3761 42.9881 30.3761C41.596 30.2022 38.8217 29.4689 38.8217 29.4689C38.8217 29.4689 37.3297 29.0604 36.6242 28.7406ZM54.1846 33.8643C53.8794 31.8775 53.7189 29.5764 53.4912 27.6092L53.7378 26.2104C53.8714 25.4525 54.0255 24.625 54.1571 23.9504C54.2887 23.2758 54.404 22.7344 54.4378 22.6177C54.4474 22.5849 54.452 22.5684 54.452 22.5684C54.73 22.5003 55.0096 22.4724 55.275 22.4436L55.555 23.2444L55.5557 23.2448C56.7355 26.341 56.7831 29.6962 56.0734 32.5523C55.907 33.222 55.7338 33.8077 55.5354 34.4337C55.5094 34.516 55.4953 34.547 55.4809 34.5835C55.0364 34.3446 54.5712 34.1093 54.1846 33.8643ZM31.7911 16.8326C32.091 16.6015 32.4545 16.3298 32.7486 16.1233C33.9452 15.2836 34.5385 14.9993 36.3131 14.4159C36.7415 14.2751 37.2593 14.1184 37.4829 14.0597L37.4028 14.1973L37.13 14.6682L36.5115 14.876C35.6842 15.1545 33.7168 15.9839 32.4461 16.5873C32.0614 16.77 31.9396 16.7929 31.7911 16.8326ZM39.4769 17.8559L39.1386 17.2259C38.8969 16.7759 38.6149 16.2818 38.368 15.8689C38.1211 15.4561 37.9201 15.1358 37.7973 14.9869L37.7276 14.9021L37.9091 14.5643C38.1485 14.1186 38.2639 13.9209 38.3749 13.8368C38.4865 13.7523 38.6668 13.7184 39.1063 13.6502C41.7417 13.2407 43.8153 13.4596 46.7887 14.4653C47.7943 14.8621 49.5639 15.7535 49.5639 15.7535L49.7367 17.681C49.7367 17.681 47.4877 18.9118 46.3075 19.2914C46.1291 19.3472 45.9895 19.3575 45.9895 19.3575C45.9895 19.3575 41.6016 18.2531 39.4769 17.8559ZM54.4128 21.995C53.0842 20.4483 50.2916 17.805 50.2916 17.805L50.2913 17.8039L50.2887 17.7985C50.2887 17.7985 50.2391 16.7821 50.2162 16.275C50.2162 16.275 50.303 16.3405 50.3858 16.41L50.3869 16.4114L50.3884 16.4122C52.5089 17.9187 54.0972 19.9497 54.8815 21.7045L54.8818 21.7059C54.9151 21.7628 54.9431 21.8263 54.9695 21.8781C54.7887 21.9325 54.4123 21.9944 54.4123 21.9944L54.4128 21.995Z" fill="black"/>
<circle cx="41.0615" cy="28.9917" r="16.5847" stroke="#131A1D" stroke-width="1.8687"/>
<defs>
<linearGradient id="paint0_linear_523_2586" x1="23.762" y1="28.3353" x2="65.7766" y2="88.2373" gradientUnits="userSpaceOnUse">
<stop stop-color="#5EDC7C"/>
<stop offset="1" stop-color="#2E6C40"/>
</linearGradient>
<linearGradient id="paint1_linear_523_2586" x1="47.4179" y1="4.96114" x2="41.3249" y2="80.9286" gradientUnits="userSpaceOnUse">
<stop stop-color="#EB3E42"/>
<stop offset="1" stop-color="#8D0D12"/>
</linearGradient>
<linearGradient id="paint2_linear_523_2586" x1="54.4356" y1="4.31621" x2="41.3249" y2="80.9286" gradientUnits="userSpaceOnUse">
<stop stop-color="#C21D24"/>
<stop offset="1" stop-color="#B91D23"/>
</linearGradient>
<linearGradient id="paint3_linear_523_2586" x1="57.4955" y1="-2.48071" x2="57.3405" y2="83.7191" gradientUnits="userSpaceOnUse">
<stop stop-color="#D42E2C"/>
<stop offset="0.427943" stop-color="#901615"/>
<stop offset="1" stop-color="#CF2927"/>
</linearGradient>
<linearGradient id="paint4_linear_523_2586" x1="32.9999" y1="4.65112" x2="17.3413" y2="35.6582" gradientUnits="userSpaceOnUse">
<stop stop-color="white" stop-opacity="0"/>
<stop offset="0.283381" stop-color="white"/>
<stop offset="0.576781" stop-color="white"/>
<stop offset="1" stop-color="white" stop-opacity="0"/>
</linearGradient>
</defs>
</svg>
